<svg height="512" viewBox="0 0 192 192" width="512" xmlns="http://www.w3.org/2000/svg" xmlns:xlink="http://www.w3.org/1999/xlink"><linearGradient id="New_Gradient_Swatch_1" gradientUnits="userSpaceOnUse" x1="26.901" x2="169.1" y1="182.214" y2="40.015"><stop offset="0" stop-color="#34cdfa"/><stop offset="1" stop-color="#e8d9f1"/></linearGradient><path d="m154.261 134.793a79.991 79.991 0 1 0 -138.246-56.372l-15.443 38.608a8 8 0 0 0 3.85 10.126l11.578 5.789v35.056a8 8 0 0 0 8 8h43.056l5.789 11.578a8 8 0 0 0 7.155 4.422h80a8 8 0 0 0 7.692-10.2z" fill="url(#New_Gradient_Swatch_1)"/><g fill="#fff"><path d="m120 32h16v48h-16z"/><path d="m56 88h16v48h-16z"/><path d="m80 80a24 24 0 1 1 24-24 24.027 24.027 0 0 1 -24 24zm0-32a8 8 0 1 0 8 8 8.009 8.009 0 0 0 -8-8z"/><path d="m112 136a24 24 0 1 1 24-24 24.027 24.027 0 0 1 -24 24zm0-32a8 8 0 1 0 8 8 8.009 8.009 0 0 0 -8-8z"/></g></svg>